<?xml version="1.0" encoding="utf-8" standalone="no"?>
<!DOCTYPE svg PUBLIC "-//W3C//DTD SVG 1.1//EN"
  "http://www.w3.org/Graphics/SVG/1.1/DTD/svg11.dtd">
<!-- Created with matplotlib (https://matplotlib.org/) -->
<svg height="288pt" version="1.1" viewBox="0 0 432 288" width="432pt" xmlns="http://www.w3.org/2000/svg" xmlns:xlink="http://www.w3.org/1999/xlink">
 <defs>
  <style type="text/css">
*{stroke-linecap:butt;stroke-linejoin:round;}
  </style>
 </defs>
 <g id="figure_1">
  <g id="patch_1">
   <path d="M 0 288 
L 432 288 
L 432 0 
L 0 0 
z
" style="fill:#ffffff;"/>
  </g>
  <g id="axes_1">
   <g id="patch_2">
    <path d="M 54 252 
L 388.8 252 
L 388.8 34.56 
L 54 34.56 
z
" style="fill:#ffffff;"/>
   </g>
   <g id="PathCollection_1">
    <defs>
     <path d="M 0 3 
C 0.795609 3 1.55874 2.683901 2.12132 2.12132 
C 2.683901 1.55874 3 0.795609 3 0 
C 3 -0.795609 2.683901 -1.55874 2.12132 -2.12132 
C 1.55874 -2.683901 0.795609 -3 0 -3 
C -0.795609 -3 -1.55874 -2.683901 -2.12132 -2.12132 
C -2.683901 -1.55874 -3 -0.795609 -3 0 
C -3 0.795609 -2.683901 1.55874 -2.12132 2.12132 
C -1.55874 2.683901 -0.795609 3 0 3 
z
" id="m570856c7ed" style="stroke:#0000ff;"/>
    </defs>
    <g clip-path="url(#p02dcac7863)">
     <use style="fill:#0000ff;stroke:#0000ff;" x="215.86096" xlink:href="#m570856c7ed" y="146.190263"/>
     <use style="fill:#0000ff;stroke:#0000ff;" x="197.231903" xlink:href="#m570856c7ed" y="233.962716"/>
     <use style="fill:#0000ff;stroke:#0000ff;" x="218.295157" xlink:href="#m570856c7ed" y="65.768617"/>
     <use style="fill:#0000ff;stroke:#0000ff;" x="185.905435" xlink:href="#m570856c7ed" y="145.206512"/>
     <use style="fill:#0000ff;stroke:#0000ff;" x="220.580321" xlink:href="#m570856c7ed" y="109.053662"/>
     <use style="fill:#0000ff;stroke:#0000ff;" x="264.69393" xlink:href="#m570856c7ed" y="123.372705"/>
     <use style="fill:#0000ff;stroke:#0000ff;" x="152.770552" xlink:href="#m570856c7ed" y="100.555147"/>
     <use style="fill:#0000ff;stroke:#0000ff;" x="171.747352" xlink:href="#m570856c7ed" y="174.746369"/>
     <use style="fill:#0000ff;stroke:#0000ff;" x="168.61767" xlink:href="#m570856c7ed" y="105.25529"/>
     <use style="fill:#0000ff;stroke:#0000ff;" x="277.908142" xlink:href="#m570856c7ed" y="140.998244"/>
     <use style="fill:#0000ff;stroke:#0000ff;" x="115.860179" xlink:href="#m570856c7ed" y="137.473136"/>
     <use style="fill:#0000ff;stroke:#0000ff;" x="105.179519" xlink:href="#m570856c7ed" y="85.798881"/>
     <use style="fill:#0000ff;stroke:#0000ff;" x="143.232474" xlink:href="#m570856c7ed" y="112.988666"/>
     <use style="fill:#0000ff;stroke:#0000ff;" x="332.950797" xlink:href="#m570856c7ed" y="101.183654"/>
     <use style="fill:#0000ff;stroke:#0000ff;" x="122.765349" xlink:href="#m570856c7ed" y="95.171842"/>
     <use style="fill:#0000ff;stroke:#0000ff;" x="143.828604" xlink:href="#m570856c7ed" y="125.69545"/>
     <use style="fill:#0000ff;stroke:#0000ff;" x="197.579645" xlink:href="#m570856c7ed" y="139.27668"/>
     <use style="fill:#0000ff;stroke:#0000ff;" x="249.890039" xlink:href="#m570856c7ed" y="54.045584"/>
     <use style="fill:#0000ff;stroke:#0000ff;" x="168.61767" xlink:href="#m570856c7ed" y="65.304068"/>
     <use style="fill:#0000ff;stroke:#0000ff;" x="223.809358" xlink:href="#m570856c7ed" y="79.513805"/>
     <use style="fill:#0000ff;stroke:#0000ff;" x="213.277731" xlink:href="#m570856c7ed" y="107.578036"/>
     <use style="fill:#0000ff;stroke:#0000ff;" x="143.182797" xlink:href="#m570856c7ed" y="99.106846"/>
     <use style="fill:#0000ff;stroke:#0000ff;" x="193.158349" xlink:href="#m570856c7ed" y="108.643766"/>
     <use style="fill:#0000ff;stroke:#0000ff;" x="162.209274" xlink:href="#m570856c7ed" y="117.114955"/>
     <use style="fill:#0000ff;stroke:#0000ff;" x="295.841714" xlink:href="#m570856c7ed" y="142.255259"/>
     <use style="fill:#0000ff;stroke:#0000ff;" x="171.250577" xlink:href="#m570856c7ed" y="149.633392"/>
     <use style="fill:#0000ff;stroke:#0000ff;" x="333.646282" xlink:href="#m570856c7ed" y="162.61344"/>
     <use style="fill:#0000ff;stroke:#0000ff;" x="157.986688" xlink:href="#m570856c7ed" y="115.803287"/>
     <use style="fill:#0000ff;stroke:#0000ff;" x="181.037042" xlink:href="#m570856c7ed" y="129.165905"/>
     <use style="fill:#0000ff;stroke:#0000ff;" x="263.551348" xlink:href="#m570856c7ed" y="114.655578"/>
     <use style="fill:#0000ff;stroke:#0000ff;" x="199.169325" xlink:href="#m570856c7ed" y="135.259697"/>
     <use style="fill:#0000ff;stroke:#0000ff;" x="202.597071" xlink:href="#m570856c7ed" y="133.292194"/>
     <use style="fill:#0000ff;stroke:#0000ff;" x="257.838437" xlink:href="#m570856c7ed" y="122.962809"/>
     <use style="fill:#0000ff;stroke:#0000ff;" x="223.014518" xlink:href="#m570856c7ed" y="149.988635"/>
     <use style="fill:#0000ff;stroke:#0000ff;" x="178.553167" xlink:href="#m570856c7ed" y="78.557381"/>
     <use style="fill:#0000ff;stroke:#0000ff;" x="216.804832" xlink:href="#m570856c7ed" y="117.798116"/>
     <use style="fill:#0000ff;stroke:#0000ff;" x="261.812636" xlink:href="#m570856c7ed" y="73.14675"/>
     <use style="fill:#0000ff;stroke:#0000ff;" x="302.746885" xlink:href="#m570856c7ed" y="122.061037"/>
     <use style="fill:#0000ff;stroke:#0000ff;" x="266.432642" xlink:href="#m570856c7ed" y="135.150391"/>
     <use style="fill:#0000ff;stroke:#0000ff;" x="142.636344" xlink:href="#m570856c7ed" y="116.923671"/>
     <use style="fill:#0000ff;stroke:#0000ff;" x="222.716453" xlink:href="#m570856c7ed" y="122.771524"/>
     <use style="fill:#0000ff;stroke:#0000ff;" x="171.946062" xlink:href="#m570856c7ed" y="153.131173"/>
     <use style="fill:#0000ff;stroke:#0000ff;" x="165.537666" xlink:href="#m570856c7ed" y="164.772227"/>
     <use style="fill:#0000ff;stroke:#0000ff;" x="137.469886" xlink:href="#m570856c7ed" y="93.942154"/>
     <use style="fill:#0000ff;stroke:#0000ff;" x="227.634525" xlink:href="#m570856c7ed" y="153.759681"/>
     <use style="fill:#0000ff;stroke:#0000ff;" x="81.880777" xlink:href="#m570856c7ed" y="104.763415"/>
     <use style="fill:#0000ff;stroke:#0000ff;" x="131.65762" xlink:href="#m570856c7ed" y="141.380814"/>
     <use style="fill:#0000ff;stroke:#0000ff;" x="258.533922" xlink:href="#m570856c7ed" y="80.224292"/>
     <use style="fill:#0000ff;stroke:#0000ff;" x="140.7486" xlink:href="#m570856c7ed" y="217.75815"/>
     <use style="fill:#0000ff;stroke:#0000ff;" x="155.651846" xlink:href="#m570856c7ed" y="128.783336"/>
     <use style="fill:#0000ff;stroke:#0000ff;" x="194.598996" xlink:href="#m570856c7ed" y="242.078662"/>
     <use style="fill:#0000ff;stroke:#0000ff;" x="179.29833" xlink:href="#m570856c7ed" y="120.886001"/>
     <use style="fill:#0000ff;stroke:#0000ff;" x="185.160273" xlink:href="#m570856c7ed" y="110.720574"/>
     <use style="fill:#0000ff;stroke:#0000ff;" x="246.661002" xlink:href="#m570856c7ed" y="162.449482"/>
     <use style="fill:#0000ff;stroke:#0000ff;" x="155.999588" xlink:href="#m570856c7ed" y="110.474636"/>
     <use style="fill:#0000ff;stroke:#0000ff;" x="119.486635" xlink:href="#m570856c7ed" y="129.712434"/>
     <use style="fill:#0000ff;stroke:#0000ff;" x="145.666671" xlink:href="#m570856c7ed" y="234.509244"/>
     <use style="fill:#0000ff;stroke:#0000ff;" x="203.888686" xlink:href="#m570856c7ed" y="102.577301"/>
     <use style="fill:#0000ff;stroke:#0000ff;" x="177.460263" xlink:href="#m570856c7ed" y="76.726511"/>
     <use style="fill:#0000ff;stroke:#0000ff;" x="92.213695" xlink:href="#m570856c7ed" y="138.074318"/>
     <use style="fill:#0000ff;stroke:#0000ff;" x="218.295157" xlink:href="#m570856c7ed" y="121.569161"/>
     <use style="fill:#0000ff;stroke:#0000ff;" x="92.561437" xlink:href="#m570856c7ed" y="211.336442"/>
     <use style="fill:#0000ff;stroke:#0000ff;" x="185.160273" xlink:href="#m570856c7ed" y="109.436232"/>
     <use style="fill:#0000ff;stroke:#0000ff;" x="130.515037" xlink:href="#m570856c7ed" y="76.917796"/>
     <use style="fill:#0000ff;stroke:#0000ff;" x="174.976388" xlink:href="#m570856c7ed" y="119.328395"/>
     <use style="fill:#0000ff;stroke:#0000ff;" x="193.456413" xlink:href="#m570856c7ed" y="123.782601"/>
     <use style="fill:#0000ff;stroke:#0000ff;" x="183.123496" xlink:href="#m570856c7ed" y="75.469496"/>
     <use style="fill:#0000ff;stroke:#0000ff;" x="140.847955" xlink:href="#m570856c7ed" y="135.150391"/>
     <use style="fill:#0000ff;stroke:#0000ff;" x="92.11434" xlink:href="#m570856c7ed" y="160.072083"/>
     <use style="fill:#0000ff;stroke:#0000ff;" x="143.431184" xlink:href="#m570856c7ed" y="147.993807"/>
     <use style="fill:#0000ff;stroke:#0000ff;" x="168.61767" xlink:href="#m570856c7ed" y="150.453185"/>
     <use style="fill:#0000ff;stroke:#0000ff;" x="308.708184" xlink:href="#m570856c7ed" y="153.076521"/>
     <use style="fill:#0000ff;stroke:#0000ff;" x="197.132548" xlink:href="#m570856c7ed" y="163.187295"/>
     <use style="fill:#0000ff;stroke:#0000ff;" x="155.353781" xlink:href="#m570856c7ed" y="128.182154"/>
     <use style="fill:#0000ff;stroke:#0000ff;" x="171.151222" xlink:href="#m570856c7ed" y="215.162141"/>
     <use style="fill:#0000ff;stroke:#0000ff;" x="224.902263" xlink:href="#m570856c7ed" y="114.628251"/>
     <use style="fill:#0000ff;stroke:#0000ff;" x="272.095876" xlink:href="#m570856c7ed" y="96.838754"/>
     <use style="fill:#0000ff;stroke:#0000ff;" x="290.675256" xlink:href="#m570856c7ed" y="138.101644"/>
     <use style="fill:#0000ff;stroke:#0000ff;" x="86.053686" xlink:href="#m570856c7ed" y="143.020399"/>
     <use style="fill:#0000ff;stroke:#0000ff;" x="272.095876" xlink:href="#m570856c7ed" y="108.862377"/>
     <use style="fill:#0000ff;stroke:#0000ff;" x="169.760252" xlink:href="#m570856c7ed" y="213.932452"/>
     <use style="fill:#0000ff;stroke:#0000ff;" x="174.231226" xlink:href="#m570856c7ed" y="127.826911"/>
     <use style="fill:#0000ff;stroke:#0000ff;" x="69.262696" xlink:href="#m570856c7ed" y="147.255994"/>
     <use style="fill:#0000ff;stroke:#0000ff;" x="143.778926" xlink:href="#m570856c7ed" y="112.004915"/>
     <use style="fill:#0000ff;stroke:#0000ff;" x="218.295157" xlink:href="#m570856c7ed" y="81.781898"/>
     <use style="fill:#0000ff;stroke:#0000ff;" x="208.16095" xlink:href="#m570856c7ed" y="147.857175"/>
     <use style="fill:#0000ff;stroke:#0000ff;" x="211.837084" xlink:href="#m570856c7ed" y="140.943591"/>
     <use style="fill:#0000ff;stroke:#0000ff;" x="261.514571" xlink:href="#m570856c7ed" y="125.750103"/>
     <use style="fill:#0000ff;stroke:#0000ff;" x="177.957038" xlink:href="#m570856c7ed" y="150.015962"/>
     <use style="fill:#0000ff;stroke:#0000ff;" x="373.537304" xlink:href="#m570856c7ed" y="44.481338"/>
     <use style="fill:#0000ff;stroke:#0000ff;" x="118.940183" xlink:href="#m570856c7ed" y="188.846801"/>
     <use style="fill:#0000ff;stroke:#0000ff;" x="277.013947" xlink:href="#m570856c7ed" y="178.052866"/>
     <use style="fill:#0000ff;stroke:#0000ff;" x="130.515037" xlink:href="#m570856c7ed" y="117.224261"/>
     <use style="fill:#0000ff;stroke:#0000ff;" x="183.520916" xlink:href="#m570856c7ed" y="104.490151"/>
     <use style="fill:#0000ff;stroke:#0000ff;" x="207.266755" xlink:href="#m570856c7ed" y="127.90889"/>
     <use style="fill:#0000ff;stroke:#0000ff;" x="89.53111" xlink:href="#m570856c7ed" y="49.482073"/>
     <use style="fill:#0000ff;stroke:#0000ff;" x="299.517848" xlink:href="#m570856c7ed" y="138.265602"/>
     <use style="fill:#0000ff;stroke:#0000ff;" x="287.843639" xlink:href="#m570856c7ed" y="132.144485"/>
     <use style="fill:#0000ff;stroke:#0000ff;" x="95.740796" xlink:href="#m570856c7ed" y="176.987136"/>
     <use style="fill:#0000ff;stroke:#0000ff;" x="225.100973" xlink:href="#m570856c7ed" y="167.942092"/>
     <use style="fill:#0000ff;stroke:#0000ff;" x="304.137855" xlink:href="#m570856c7ed" y="106.102409"/>
     <use style="fill:#0000ff;stroke:#0000ff;" x="275.424267" xlink:href="#m570856c7ed" y="101.948794"/>
     <use style="fill:#0000ff;stroke:#0000ff;" x="163.898309" xlink:href="#m570856c7ed" y="188.354925"/>
     <use style="fill:#0000ff;stroke:#0000ff;" x="149.740225" xlink:href="#m570856c7ed" y="112.059568"/>
     <use style="fill:#0000ff;stroke:#0000ff;" x="151.131194" xlink:href="#m570856c7ed" y="65.386048"/>
     <use style="fill:#0000ff;stroke:#0000ff;" x="106.073714" xlink:href="#m570856c7ed" y="148.840926"/>
     <use style="fill:#0000ff;stroke:#0000ff;" x="223.014518" xlink:href="#m570856c7ed" y="137.035914"/>
     <use style="fill:#0000ff;stroke:#0000ff;" x="181.434462" xlink:href="#m570856c7ed" y="208.849738"/>
     <use style="fill:#0000ff;stroke:#0000ff;" x="155.949911" xlink:href="#m570856c7ed" y="180.894813"/>
     <use style="fill:#0000ff;stroke:#0000ff;" x="193.456413" xlink:href="#m570856c7ed" y="133.346847"/>
     <use style="fill:#0000ff;stroke:#0000ff;" x="242.438416" xlink:href="#m570856c7ed" y="90.744963"/>
     <use style="fill:#0000ff;stroke:#0000ff;" x="171.200899" xlink:href="#m570856c7ed" y="146.135611"/>
     <use style="fill:#0000ff;stroke:#0000ff;" x="317.650131" xlink:href="#m570856c7ed" y="130.668858"/>
     <use style="fill:#0000ff;stroke:#0000ff;" x="228.230654" xlink:href="#m570856c7ed" y="116.295163"/>
     <use style="fill:#0000ff;stroke:#0000ff;" x="185.657048" xlink:href="#m570856c7ed" y="120.448778"/>
     <use style="fill:#0000ff;stroke:#0000ff;" x="164.593793" xlink:href="#m570856c7ed" y="121.951731"/>
     <use style="fill:#0000ff;stroke:#0000ff;" x="148.746675" xlink:href="#m570856c7ed" y="130.696185"/>
     <use style="fill:#0000ff;stroke:#0000ff;" x="69.262696" xlink:href="#m570856c7ed" y="107.250119"/>
     <use style="fill:#0000ff;stroke:#0000ff;" x="202.000941" xlink:href="#m570856c7ed" y="75.141579"/>
     <use style="fill:#0000ff;stroke:#0000ff;" x="158.483463" xlink:href="#m570856c7ed" y="81.53596"/>
     <use style="fill:#0000ff;stroke:#0000ff;" x="227.485492" xlink:href="#m570856c7ed" y="60.385313"/>
    </g>
   </g>
   <g id="matplotlib.axis_1">
    <g id="xtick_1">
     <g id="line2d_1">
      <defs>
       <path d="M 0 0 
L 0 3.5 
" id="ma18d063344" style="stroke:#000000;stroke-width:0.8;"/>
      </defs>
      <g>
       <use style="stroke:#000000;stroke-width:0.8;" x="69.262696" xlink:href="#ma18d063344" y="252"/>
      </g>
     </g>
     <g id="text_1">
      <!-- 0 -->
      <defs>
       <path d="M 31.78125 66.40625 
Q 24.171875 66.40625 20.328125 58.90625 
Q 16.5 51.421875 16.5 36.375 
Q 16.5 21.390625 20.328125 13.890625 
Q 24.171875 6.390625 31.78125 6.390625 
Q 39.453125 6.390625 43.28125 13.890625 
Q 47.125 21.390625 47.125 36.375 
Q 47.125 51.421875 43.28125 58.90625 
Q 39.453125 66.40625 31.78125 66.40625 
z
M 31.78125 74.21875 
Q 44.046875 74.21875 50.515625 64.515625 
Q 56.984375 54.828125 56.984375 36.375 
Q 56.984375 17.96875 50.515625 8.265625 
Q 44.046875 -1.421875 31.78125 -1.421875 
Q 19.53125 -1.421875 13.0625 8.265625 
Q 6.59375 17.96875 6.59375 36.375 
Q 6.59375 54.828125 13.0625 64.515625 
Q 19.53125 74.21875 31.78125 74.21875 
z
" id="DejaVuSans-48"/>
      </defs>
      <g transform="translate(66.081446 266.598437)scale(0.1 -0.1)">
       <use xlink:href="#DejaVuSans-48"/>
      </g>
     </g>
    </g>
    <g id="xtick_2">
     <g id="line2d_2">
      <g>
       <use style="stroke:#000000;stroke-width:0.8;" x="118.940183" xlink:href="#ma18d063344" y="252"/>
      </g>
     </g>
     <g id="text_2">
      <!-- 10 -->
      <defs>
       <path d="M 12.40625 8.296875 
L 28.515625 8.296875 
L 28.515625 63.921875 
L 10.984375 60.40625 
L 10.984375 69.390625 
L 28.421875 72.90625 
L 38.28125 72.90625 
L 38.28125 8.296875 
L 54.390625 8.296875 
L 54.390625 0 
L 12.40625 0 
z
" id="DejaVuSans-49"/>
      </defs>
      <g transform="translate(112.577683 266.598437)scale(0.1 -0.1)">
       <use xlink:href="#DejaVuSans-49"/>
       <use x="63.623047" xlink:href="#DejaVuSans-48"/>
      </g>
     </g>
    </g>
    <g id="xtick_3">
     <g id="line2d_3">
      <g>
       <use style="stroke:#000000;stroke-width:0.8;" x="168.61767" xlink:href="#ma18d063344" y="252"/>
      </g>
     </g>
     <g id="text_3">
      <!-- 20 -->
      <defs>
       <path d="M 19.1875 8.296875 
L 53.609375 8.296875 
L 53.609375 0 
L 7.328125 0 
L 7.328125 8.296875 
Q 12.9375 14.109375 22.625 23.890625 
Q 32.328125 33.6875 34.8125 36.53125 
Q 39.546875 41.84375 41.421875 45.53125 
Q 43.3125 49.21875 43.3125 52.78125 
Q 43.3125 58.59375 39.234375 62.25 
Q 35.15625 65.921875 28.609375 65.921875 
Q 23.96875 65.921875 18.8125 64.3125 
Q 13.671875 62.703125 7.8125 59.421875 
L 7.8125 69.390625 
Q 13.765625 71.78125 18.9375 73 
Q 24.125 74.21875 28.421875 74.21875 
Q 39.75 74.21875 46.484375 68.546875 
Q 53.21875 62.890625 53.21875 53.421875 
Q 53.21875 48.921875 51.53125 44.890625 
Q 49.859375 40.875 45.40625 35.40625 
Q 44.1875 33.984375 37.640625 27.21875 
Q 31.109375 20.453125 19.1875 8.296875 
z
" id="DejaVuSans-50"/>
      </defs>
      <g transform="translate(162.25517 266.598437)scale(0.1 -0.1)">
       <use xlink:href="#DejaVuSans-50"/>
       <use x="63.623047" xlink:href="#DejaVuSans-48"/>
      </g>
     </g>
    </g>
    <g id="xtick_4">
     <g id="line2d_4">
      <g>
       <use style="stroke:#000000;stroke-width:0.8;" x="218.295157" xlink:href="#ma18d063344" y="252"/>
      </g>
     </g>
     <g id="text_4">
      <!-- 30 -->
      <defs>
       <path d="M 40.578125 39.3125 
Q 47.65625 37.796875 51.625 33 
Q 55.609375 28.21875 55.609375 21.1875 
Q 55.609375 10.40625 48.1875 4.484375 
Q 40.765625 -1.421875 27.09375 -1.421875 
Q 22.515625 -1.421875 17.65625 -0.515625 
Q 12.796875 0.390625 7.625 2.203125 
L 7.625 11.71875 
Q 11.71875 9.328125 16.59375 8.109375 
Q 21.484375 6.890625 26.8125 6.890625 
Q 36.078125 6.890625 40.9375 10.546875 
Q 45.796875 14.203125 45.796875 21.1875 
Q 45.796875 27.640625 41.28125 31.265625 
Q 36.765625 34.90625 28.71875 34.90625 
L 20.21875 34.90625 
L 20.21875 43.015625 
L 29.109375 43.015625 
Q 36.375 43.015625 40.234375 45.921875 
Q 44.09375 48.828125 44.09375 54.296875 
Q 44.09375 59.90625 40.109375 62.90625 
Q 36.140625 65.921875 28.71875 65.921875 
Q 24.65625 65.921875 20.015625 65.03125 
Q 15.375 64.15625 9.8125 62.3125 
L 9.8125 71.09375 
Q 15.4375 72.65625 20.34375 73.4375 
Q 25.25 74.21875 29.59375 74.21875 
Q 40.828125 74.21875 47.359375 69.109375 
Q 53.90625 64.015625 53.90625 55.328125 
Q 53.90625 49.265625 50.4375 45.09375 
Q 46.96875 40.921875 40.578125 39.3125 
z
" id="DejaVuSans-51"/>
      </defs>
      <g transform="translate(211.932657 266.598437)scale(0.1 -0.1)">
       <use xlink:href="#DejaVuSans-51"/>
       <use x="63.623047" xlink:href="#DejaVuSans-48"/>
      </g>
     </g>
    </g>
    <g id="xtick_5">
     <g id="line2d_5">
      <g>
       <use style="stroke:#000000;stroke-width:0.8;" x="267.972644" xlink:href="#ma18d063344" y="252"/>
      </g>
     </g>
     <g id="text_5">
      <!-- 40 -->
      <defs>
       <path d="M 37.796875 64.3125 
L 12.890625 25.390625 
L 37.796875 25.390625 
z
M 35.203125 72.90625 
L 47.609375 72.90625 
L 47.609375 25.390625 
L 58.015625 25.390625 
L 58.015625 17.1875 
L 47.609375 17.1875 
L 47.609375 0 
L 37.796875 0 
L 37.796875 17.1875 
L 4.890625 17.1875 
L 4.890625 26.703125 
z
" id="DejaVuSans-52"/>
      </defs>
      <g transform="translate(261.610144 266.598437)scale(0.1 -0.1)">
       <use xlink:href="#DejaVuSans-52"/>
       <use x="63.623047" xlink:href="#DejaVuSans-48"/>
      </g>
     </g>
    </g>
    <g id="xtick_6">
     <g id="line2d_6">
      <g>
       <use style="stroke:#000000;stroke-width:0.8;" x="317.650131" xlink:href="#ma18d063344" y="252"/>
      </g>
     </g>
     <g id="text_6">
      <!-- 50 -->
      <defs>
       <path d="M 10.796875 72.90625 
L 49.515625 72.90625 
L 49.515625 64.59375 
L 19.828125 64.59375 
L 19.828125 46.734375 
Q 21.96875 47.46875 24.109375 47.828125 
Q 26.265625 48.1875 28.421875 48.1875 
Q 40.625 48.1875 47.75 41.5 
Q 54.890625 34.8125 54.890625 23.390625 
Q 54.890625 11.625 47.5625 5.09375 
Q 40.234375 -1.421875 26.90625 -1.421875 
Q 22.3125 -1.421875 17.546875 -0.640625 
Q 12.796875 0.140625 7.71875 1.703125 
L 7.71875 11.625 
Q 12.109375 9.234375 16.796875 8.0625 
Q 21.484375 6.890625 26.703125 6.890625 
Q 35.15625 6.890625 40.078125 11.328125 
Q 45.015625 15.765625 45.015625 23.390625 
Q 45.015625 31 40.078125 35.4375 
Q 35.15625 39.890625 26.703125 39.890625 
Q 22.75 39.890625 18.8125 39.015625 
Q 14.890625 38.140625 10.796875 36.28125 
z
" id="DejaVuSans-53"/>
      </defs>
      <g transform="translate(311.287631 266.598437)scale(0.1 -0.1)">
       <use xlink:href="#DejaVuSans-53"/>
       <use x="63.623047" xlink:href="#DejaVuSans-48"/>
      </g>
     </g>
    </g>
    <g id="xtick_7">
     <g id="line2d_7">
      <g>
       <use style="stroke:#000000;stroke-width:0.8;" x="367.327618" xlink:href="#ma18d063344" y="252"/>
      </g>
     </g>
     <g id="text_7">
      <!-- 60 -->
      <defs>
       <path d="M 33.015625 40.375 
Q 26.375 40.375 22.484375 35.828125 
Q 18.609375 31.296875 18.609375 23.390625 
Q 18.609375 15.53125 22.484375 10.953125 
Q 26.375 6.390625 33.015625 6.390625 
Q 39.65625 6.390625 43.53125 10.953125 
Q 47.40625 15.53125 47.40625 23.390625 
Q 47.40625 31.296875 43.53125 35.828125 
Q 39.65625 40.375 33.015625 40.375 
z
M 52.59375 71.296875 
L 52.59375 62.3125 
Q 48.875 64.0625 45.09375 64.984375 
Q 41.3125 65.921875 37.59375 65.921875 
Q 27.828125 65.921875 22.671875 59.328125 
Q 17.53125 52.734375 16.796875 39.40625 
Q 19.671875 43.65625 24.015625 45.921875 
Q 28.375 48.1875 33.59375 48.1875 
Q 44.578125 48.1875 50.953125 41.515625 
Q 57.328125 34.859375 57.328125 23.390625 
Q 57.328125 12.15625 50.6875 5.359375 
Q 44.046875 -1.421875 33.015625 -1.421875 
Q 20.359375 -1.421875 13.671875 8.265625 
Q 6.984375 17.96875 6.984375 36.375 
Q 6.984375 53.65625 15.1875 63.9375 
Q 23.390625 74.21875 37.203125 74.21875 
Q 40.921875 74.21875 44.703125 73.484375 
Q 48.484375 72.75 52.59375 71.296875 
z
" id="DejaVuSans-54"/>
      </defs>
      <g transform="translate(360.965118 266.598437)scale(0.1 -0.1)">
       <use xlink:href="#DejaVuSans-54"/>
       <use x="63.623047" xlink:href="#DejaVuSans-48"/>
      </g>
     </g>
    </g>
    <g id="text_8">
     <!-- Females in Parliament (%) -->
     <defs>
      <path d="M 9.8125 72.90625 
L 51.703125 72.90625 
L 51.703125 64.59375 
L 19.671875 64.59375 
L 19.671875 43.109375 
L 48.578125 43.109375 
L 48.578125 34.8125 
L 19.671875 34.8125 
L 19.671875 0 
L 9.8125 0 
z
" id="DejaVuSans-70"/>
      <path d="M 56.203125 29.59375 
L 56.203125 25.203125 
L 14.890625 25.203125 
Q 15.484375 15.921875 20.484375 11.0625 
Q 25.484375 6.203125 34.421875 6.203125 
Q 39.59375 6.203125 44.453125 7.46875 
Q 49.3125 8.734375 54.109375 11.28125 
L 54.109375 2.78125 
Q 49.265625 0.734375 44.1875 -0.34375 
Q 39.109375 -1.421875 33.890625 -1.421875 
Q 20.796875 -1.421875 13.15625 6.1875 
Q 5.515625 13.8125 5.515625 26.8125 
Q 5.515625 40.234375 12.765625 48.109375 
Q 20.015625 56 32.328125 56 
Q 43.359375 56 49.78125 48.890625 
Q 56.203125 41.796875 56.203125 29.59375 
z
M 47.21875 32.234375 
Q 47.125 39.59375 43.09375 43.984375 
Q 39.0625 48.390625 32.421875 48.390625 
Q 24.90625 48.390625 20.390625 44.140625 
Q 15.875 39.890625 15.1875 32.171875 
z
" id="DejaVuSans-101"/>
      <path d="M 52 44.1875 
Q 55.375 50.25 60.0625 53.125 
Q 64.75 56 71.09375 56 
Q 79.640625 56 84.28125 50.015625 
Q 88.921875 44.046875 88.921875 33.015625 
L 88.921875 0 
L 79.890625 0 
L 79.890625 32.71875 
Q 79.890625 40.578125 77.09375 44.375 
Q 74.3125 48.1875 68.609375 48.1875 
Q 61.625 48.1875 57.5625 43.546875 
Q 53.515625 38.921875 53.515625 30.90625 
L 53.515625 0 
L 44.484375 0 
L 44.484375 32.71875 
Q 44.484375 40.625 41.703125 44.40625 
Q 38.921875 48.1875 33.109375 48.1875 
Q 26.21875 48.1875 22.15625 43.53125 
Q 18.109375 38.875 18.109375 30.90625 
L 18.109375 0 
L 9.078125 0 
L 9.078125 54.6875 
L 18.109375 54.6875 
L 18.109375 46.1875 
Q 21.1875 51.21875 25.484375 53.609375 
Q 29.78125 56 35.6875 56 
Q 41.65625 56 45.828125 52.96875 
Q 50 49.953125 52 44.1875 
z
" id="DejaVuSans-109"/>
      <path d="M 34.28125 27.484375 
Q 23.390625 27.484375 19.1875 25 
Q 14.984375 22.515625 14.984375 16.5 
Q 14.984375 11.71875 18.140625 8.90625 
Q 21.296875 6.109375 26.703125 6.109375 
Q 34.1875 6.109375 38.703125 11.40625 
Q 43.21875 16.703125 43.21875 25.484375 
L 43.21875 27.484375 
z
M 52.203125 31.203125 
L 52.203125 0 
L 43.21875 0 
L 43.21875 8.296875 
Q 40.140625 3.328125 35.546875 0.953125 
Q 30.953125 -1.421875 24.3125 -1.421875 
Q 15.921875 -1.421875 10.953125 3.296875 
Q 6 8.015625 6 15.921875 
Q 6 25.140625 12.171875 29.828125 
Q 18.359375 34.515625 30.609375 34.515625 
L 43.21875 34.515625 
L 43.21875 35.40625 
Q 43.21875 41.609375 39.140625 45 
Q 35.0625 48.390625 27.6875 48.390625 
Q 23 48.390625 18.546875 47.265625 
Q 14.109375 46.140625 10.015625 43.890625 
L 10.015625 52.203125 
Q 14.9375 54.109375 19.578125 55.046875 
Q 24.21875 56 28.609375 56 
Q 40.484375 56 46.34375 49.84375 
Q 52.203125 43.703125 52.203125 31.203125 
z
" id="DejaVuSans-97"/>
      <path d="M 9.421875 75.984375 
L 18.40625 75.984375 
L 18.40625 0 
L 9.421875 0 
z
" id="DejaVuSans-108"/>
      <path d="M 44.28125 53.078125 
L 44.28125 44.578125 
Q 40.484375 46.53125 36.375 47.5 
Q 32.28125 48.484375 27.875 48.484375 
Q 21.1875 48.484375 17.84375 46.4375 
Q 14.5 44.390625 14.5 40.28125 
Q 14.5 37.15625 16.890625 35.375 
Q 19.28125 33.59375 26.515625 31.984375 
L 29.59375 31.296875 
Q 39.15625 29.25 43.1875 25.515625 
Q 47.21875 21.78125 47.21875 15.09375 
Q 47.21875 7.46875 41.1875 3.015625 
Q 35.15625 -1.421875 24.609375 -1.421875 
Q 20.21875 -1.421875 15.453125 -0.5625 
Q 10.6875 0.296875 5.421875 2 
L 5.421875 11.28125 
Q 10.40625 8.6875 15.234375 7.390625 
Q 20.0625 6.109375 24.8125 6.109375 
Q 31.15625 6.109375 34.5625 8.28125 
Q 37.984375 10.453125 37.984375 14.40625 
Q 37.984375 18.0625 35.515625 20.015625 
Q 33.0625 21.96875 24.703125 23.78125 
L 21.578125 24.515625 
Q 13.234375 26.265625 9.515625 29.90625 
Q 5.8125 33.546875 5.8125 39.890625 
Q 5.8125 47.609375 11.28125 51.796875 
Q 16.75 56 26.8125 56 
Q 31.78125 56 36.171875 55.265625 
Q 40.578125 54.546875 44.28125 53.078125 
z
" id="DejaVuSans-115"/>
      <path id="DejaVuSans-32"/>
      <path d="M 9.421875 54.6875 
L 18.40625 54.6875 
L 18.40625 0 
L 9.421875 0 
z
M 9.421875 75.984375 
L 18.40625 75.984375 
L 18.40625 64.59375 
L 9.421875 64.59375 
z
" id="DejaVuSans-105"/>
      <path d="M 54.890625 33.015625 
L 54.890625 0 
L 45.90625 0 
L 45.90625 32.71875 
Q 45.90625 40.484375 42.875 44.328125 
Q 39.84375 48.1875 33.796875 48.1875 
Q 26.515625 48.1875 22.3125 43.546875 
Q 18.109375 38.921875 18.109375 30.90625 
L 18.109375 0 
L 9.078125 0 
L 9.078125 54.6875 
L 18.109375 54.6875 
L 18.109375 46.1875 
Q 21.34375 51.125 25.703125 53.5625 
Q 30.078125 56 35.796875 56 
Q 45.21875 56 50.046875 50.171875 
Q 54.890625 44.34375 54.890625 33.015625 
z
" id="DejaVuSans-110"/>
      <path d="M 19.671875 64.796875 
L 19.671875 37.40625 
L 32.078125 37.40625 
Q 38.96875 37.40625 42.71875 40.96875 
Q 46.484375 44.53125 46.484375 51.125 
Q 46.484375 57.671875 42.71875 61.234375 
Q 38.96875 64.796875 32.078125 64.796875 
z
M 9.8125 72.90625 
L 32.078125 72.90625 
Q 44.34375 72.90625 50.609375 67.359375 
Q 56.890625 61.8125 56.890625 51.125 
Q 56.890625 40.328125 50.609375 34.8125 
Q 44.34375 29.296875 32.078125 29.296875 
L 19.671875 29.296875 
L 19.671875 0 
L 9.8125 0 
z
" id="DejaVuSans-80"/>
      <path d="M 41.109375 46.296875 
Q 39.59375 47.171875 37.8125 47.578125 
Q 36.03125 48 33.890625 48 
Q 26.265625 48 22.1875 43.046875 
Q 18.109375 38.09375 18.109375 28.8125 
L 18.109375 0 
L 9.078125 0 
L 9.078125 54.6875 
L 18.109375 54.6875 
L 18.109375 46.1875 
Q 20.953125 51.171875 25.484375 53.578125 
Q 30.03125 56 36.53125 56 
Q 37.453125 56 38.578125 55.875 
Q 39.703125 55.765625 41.0625 55.515625 
z
" id="DejaVuSans-114"/>
      <path d="M 18.3125 70.21875 
L 18.3125 54.6875 
L 36.8125 54.6875 
L 36.8125 47.703125 
L 18.3125 47.703125 
L 18.3125 18.015625 
Q 18.3125 11.328125 20.140625 9.421875 
Q 21.96875 7.515625 27.59375 7.515625 
L 36.8125 7.515625 
L 36.8125 0 
L 27.59375 0 
Q 17.1875 0 13.234375 3.875 
Q 9.28125 7.765625 9.28125 18.015625 
L 9.28125 47.703125 
L 2.6875 47.703125 
L 2.6875 54.6875 
L 9.28125 54.6875 
L 9.28125 70.21875 
z
" id="DejaVuSans-116"/>
      <path d="M 31 75.875 
Q 24.46875 64.65625 21.28125 53.65625 
Q 18.109375 42.671875 18.109375 31.390625 
Q 18.109375 20.125 21.3125 9.0625 
Q 24.515625 -2 31 -13.1875 
L 23.1875 -13.1875 
Q 15.875 -1.703125 12.234375 9.375 
Q 8.59375 20.453125 8.59375 31.390625 
Q 8.59375 42.28125 12.203125 53.3125 
Q 15.828125 64.359375 23.1875 75.875 
z
" id="DejaVuSans-40"/>
      <path d="M 72.703125 32.078125 
Q 68.453125 32.078125 66.03125 28.46875 
Q 63.625 24.859375 63.625 18.40625 
Q 63.625 12.0625 66.03125 8.421875 
Q 68.453125 4.78125 72.703125 4.78125 
Q 76.859375 4.78125 79.265625 8.421875 
Q 81.6875 12.0625 81.6875 18.40625 
Q 81.6875 24.8125 79.265625 28.4375 
Q 76.859375 32.078125 72.703125 32.078125 
z
M 72.703125 38.28125 
Q 80.421875 38.28125 84.953125 32.90625 
Q 89.5 27.546875 89.5 18.40625 
Q 89.5 9.28125 84.9375 3.921875 
Q 80.375 -1.421875 72.703125 -1.421875 
Q 64.890625 -1.421875 60.34375 3.921875 
Q 55.8125 9.28125 55.8125 18.40625 
Q 55.8125 27.59375 60.375 32.9375 
Q 64.9375 38.28125 72.703125 38.28125 
z
M 22.3125 68.015625 
Q 18.109375 68.015625 15.6875 64.375 
Q 13.28125 60.75 13.28125 54.390625 
Q 13.28125 47.953125 15.671875 44.328125 
Q 18.0625 40.71875 22.3125 40.71875 
Q 26.5625 40.71875 28.96875 44.328125 
Q 31.390625 47.953125 31.390625 54.390625 
Q 31.390625 60.6875 28.953125 64.34375 
Q 26.515625 68.015625 22.3125 68.015625 
z
M 66.40625 74.21875 
L 74.21875 74.21875 
L 28.609375 -1.421875 
L 20.796875 -1.421875 
z
M 22.3125 74.21875 
Q 30.03125 74.21875 34.609375 68.875 
Q 39.203125 63.53125 39.203125 54.390625 
Q 39.203125 45.171875 34.640625 39.84375 
Q 30.078125 34.515625 22.3125 34.515625 
Q 14.546875 34.515625 10.03125 39.859375 
Q 5.515625 45.21875 5.515625 54.390625 
Q 5.515625 63.484375 10.046875 68.84375 
Q 14.59375 74.21875 22.3125 74.21875 
z
" id="DejaVuSans-37"/>
      <path d="M 8.015625 75.875 
L 15.828125 75.875 
Q 23.140625 64.359375 26.78125 53.3125 
Q 30.421875 42.28125 30.421875 31.390625 
Q 30.421875 20.453125 26.78125 9.375 
Q 23.140625 -1.703125 15.828125 -13.1875 
L 8.015625 -13.1875 
Q 14.5 -2 17.703125 9.0625 
Q 20.90625 20.125 20.90625 31.390625 
Q 20.90625 42.671875 17.703125 53.65625 
Q 14.5 64.65625 8.015625 75.875 
z
" id="DejaVuSans-41"/>
     </defs>
     <g transform="translate(155.420313 280.276563)scale(0.1 -0.1)">
      <use xlink:href="#DejaVuSans-70"/>
      <use x="57.441406" xlink:href="#DejaVuSans-101"/>
      <use x="118.964844" xlink:href="#DejaVuSans-109"/>
      <use x="216.376953" xlink:href="#DejaVuSans-97"/>
      <use x="277.65625" xlink:href="#DejaVuSans-108"/>
      <use x="305.439453" xlink:href="#DejaVuSans-101"/>
      <use x="366.962891" xlink:href="#DejaVuSans-115"/>
      <use x="419.0625" xlink:href="#DejaVuSans-32"/>
      <use x="450.849609" xlink:href="#DejaVuSans-105"/>
      <use x="478.632812" xlink:href="#DejaVuSans-110"/>
      <use x="542.011719" xlink:href="#DejaVuSans-32"/>
      <use x="573.798828" xlink:href="#DejaVuSans-80"/>
      <use x="634.039062" xlink:href="#DejaVuSans-97"/>
      <use x="695.318359" xlink:href="#DejaVuSans-114"/>
      <use x="736.431641" xlink:href="#DejaVuSans-108"/>
      <use x="764.214844" xlink:href="#DejaVuSans-105"/>
      <use x="791.998047" xlink:href="#DejaVuSans-97"/>
      <use x="853.277344" xlink:href="#DejaVuSans-109"/>
      <use x="950.689453" xlink:href="#DejaVuSans-101"/>
      <use x="1012.212891" xlink:href="#DejaVuSans-110"/>
      <use x="1075.591797" xlink:href="#DejaVuSans-116"/>
      <use x="1114.800781" xlink:href="#DejaVuSans-32"/>
      <use x="1146.587891" xlink:href="#DejaVuSans-40"/>
      <use x="1185.601562" xlink:href="#DejaVuSans-37"/>
      <use x="1280.621094" xlink:href="#DejaVuSans-41"/>
     </g>
    </g>
   </g>
   <g id="matplotlib.axis_2">
    <g id="ytick_1">
     <g id="line2d_8">
      <defs>
       <path d="M 0 0 
L -3.5 0 
" id="m8de6af3bbb" style="stroke:#000000;stroke-width:0.8;"/>
      </defs>
      <g>
       <use style="stroke:#000000;stroke-width:0.8;" x="54" xlink:href="#m8de6af3bbb" y="246.505541"/>
      </g>
     </g>
     <g id="text_9">
      <!-- 10 -->
      <g transform="translate(34.275 250.30476)scale(0.1 -0.1)">
       <use xlink:href="#DejaVuSans-49"/>
       <use x="63.623047" xlink:href="#DejaVuSans-48"/>
      </g>
     </g>
    </g>
    <g id="ytick_2">
     <g id="line2d_9">
      <g>
       <use style="stroke:#000000;stroke-width:0.8;" x="54" xlink:href="#m8de6af3bbb" y="219.179124"/>
      </g>
     </g>
     <g id="text_10">
      <!-- 20 -->
      <g transform="translate(34.275 222.978343)scale(0.1 -0.1)">
       <use xlink:href="#DejaVuSans-50"/>
       <use x="63.623047" xlink:href="#DejaVuSans-48"/>
      </g>
     </g>
    </g>
    <g id="ytick_3">
     <g id="line2d_10">
      <g>
       <use style="stroke:#000000;stroke-width:0.8;" x="54" xlink:href="#m8de6af3bbb" y="191.852707"/>
      </g>
     </g>
     <g id="text_11">
      <!-- 30 -->
      <g transform="translate(34.275 195.651925)scale(0.1 -0.1)">
       <use xlink:href="#DejaVuSans-51"/>
       <use x="63.623047" xlink:href="#DejaVuSans-48"/>
      </g>
     </g>
    </g>
    <g id="ytick_4">
     <g id="line2d_11">
      <g>
       <use style="stroke:#000000;stroke-width:0.8;" x="54" xlink:href="#m8de6af3bbb" y="164.526289"/>
      </g>
     </g>
     <g id="text_12">
      <!-- 40 -->
      <g transform="translate(34.275 168.325508)scale(0.1 -0.1)">
       <use xlink:href="#DejaVuSans-52"/>
       <use x="63.623047" xlink:href="#DejaVuSans-48"/>
      </g>
     </g>
    </g>
    <g id="ytick_5">
     <g id="line2d_12">
      <g>
       <use style="stroke:#000000;stroke-width:0.8;" x="54" xlink:href="#m8de6af3bbb" y="137.199872"/>
      </g>
     </g>
     <g id="text_13">
      <!-- 50 -->
      <g transform="translate(34.275 140.999091)scale(0.1 -0.1)">
       <use xlink:href="#DejaVuSans-53"/>
       <use x="63.623047" xlink:href="#DejaVuSans-48"/>
      </g>
     </g>
    </g>
    <g id="ytick_6">
     <g id="line2d_13">
      <g>
       <use style="stroke:#000000;stroke-width:0.8;" x="54" xlink:href="#m8de6af3bbb" y="109.873455"/>
      </g>
     </g>
     <g id="text_14">
      <!-- 60 -->
      <g transform="translate(34.275 113.672674)scale(0.1 -0.1)">
       <use xlink:href="#DejaVuSans-54"/>
       <use x="63.623047" xlink:href="#DejaVuSans-48"/>
      </g>
     </g>
    </g>
    <g id="ytick_7">
     <g id="line2d_14">
      <g>
       <use style="stroke:#000000;stroke-width:0.8;" x="54" xlink:href="#m8de6af3bbb" y="82.547038"/>
      </g>
     </g>
     <g id="text_15">
      <!-- 70 -->
      <defs>
       <path d="M 8.203125 72.90625 
L 55.078125 72.90625 
L 55.078125 68.703125 
L 28.609375 0 
L 18.3125 0 
L 43.21875 64.59375 
L 8.203125 64.59375 
z
" id="DejaVuSans-55"/>
      </defs>
      <g transform="translate(34.275 86.346256)scale(0.1 -0.1)">
       <use xlink:href="#DejaVuSans-55"/>
       <use x="63.623047" xlink:href="#DejaVuSans-48"/>
      </g>
     </g>
    </g>
    <g id="ytick_8">
     <g id="line2d_15">
      <g>
       <use style="stroke:#000000;stroke-width:0.8;" x="54" xlink:href="#m8de6af3bbb" y="55.22062"/>
      </g>
     </g>
     <g id="text_16">
      <!-- 80 -->
      <defs>
       <path d="M 31.78125 34.625 
Q 24.75 34.625 20.71875 30.859375 
Q 16.703125 27.09375 16.703125 20.515625 
Q 16.703125 13.921875 20.71875 10.15625 
Q 24.75 6.390625 31.78125 6.390625 
Q 38.8125 6.390625 42.859375 10.171875 
Q 46.921875 13.96875 46.921875 20.515625 
Q 46.921875 27.09375 42.890625 30.859375 
Q 38.875 34.625 31.78125 34.625 
z
M 21.921875 38.8125 
Q 15.578125 40.375 12.03125 44.71875 
Q 8.5 49.078125 8.5 55.328125 
Q 8.5 64.0625 14.71875 69.140625 
Q 20.953125 74.21875 31.78125 74.21875 
Q 42.671875 74.21875 48.875 69.140625 
Q 55.078125 64.0625 55.078125 55.328125 
Q 55.078125 49.078125 51.53125 44.71875 
Q 48 40.375 41.703125 38.8125 
Q 48.828125 37.15625 52.796875 32.3125 
Q 56.78125 27.484375 56.78125 20.515625 
Q 56.78125 9.90625 50.3125 4.234375 
Q 43.84375 -1.421875 31.78125 -1.421875 
Q 19.734375 -1.421875 13.25 4.234375 
Q 6.78125 9.90625 6.78125 20.515625 
Q 6.78125 27.484375 10.78125 32.3125 
Q 14.796875 37.15625 21.921875 38.8125 
z
M 18.3125 54.390625 
Q 18.3125 48.734375 21.84375 45.5625 
Q 25.390625 42.390625 31.78125 42.390625 
Q 38.140625 42.390625 41.71875 45.5625 
Q 45.3125 48.734375 45.3125 54.390625 
Q 45.3125 60.0625 41.71875 63.234375 
Q 38.140625 66.40625 31.78125 66.40625 
Q 25.390625 66.40625 21.84375 63.234375 
Q 18.3125 60.0625 18.3125 54.390625 
z
" id="DejaVuSans-56"/>
      </defs>
      <g transform="translate(34.275 59.019839)scale(0.1 -0.1)">
       <use xlink:href="#DejaVuSans-56"/>
       <use x="63.623047" xlink:href="#DejaVuSans-48"/>
      </g>
     </g>
    </g>
    <g id="text_17">
     <!-- Female Labor Participation (%) -->
     <defs>
      <path d="M 9.8125 72.90625 
L 19.671875 72.90625 
L 19.671875 8.296875 
L 55.171875 8.296875 
L 55.171875 0 
L 9.8125 0 
z
" id="DejaVuSans-76"/>
      <path d="M 48.6875 27.296875 
Q 48.6875 37.203125 44.609375 42.84375 
Q 40.53125 48.484375 33.40625 48.484375 
Q 26.265625 48.484375 22.1875 42.84375 
Q 18.109375 37.203125 18.109375 27.296875 
Q 18.109375 17.390625 22.1875 11.75 
Q 26.265625 6.109375 33.40625 6.109375 
Q 40.53125 6.109375 44.609375 11.75 
Q 48.6875 17.390625 48.6875 27.296875 
z
M 18.109375 46.390625 
Q 20.953125 51.265625 25.265625 53.625 
Q 29.59375 56 35.59375 56 
Q 45.5625 56 51.78125 48.09375 
Q 58.015625 40.1875 58.015625 27.296875 
Q 58.015625 14.40625 51.78125 6.484375 
Q 45.5625 -1.421875 35.59375 -1.421875 
Q 29.59375 -1.421875 25.265625 0.953125 
Q 20.953125 3.328125 18.109375 8.203125 
L 18.109375 0 
L 9.078125 0 
L 9.078125 75.984375 
L 18.109375 75.984375 
z
" id="DejaVuSans-98"/>
      <path d="M 30.609375 48.390625 
Q 23.390625 48.390625 19.1875 42.75 
Q 14.984375 37.109375 14.984375 27.296875 
Q 14.984375 17.484375 19.15625 11.84375 
Q 23.34375 6.203125 30.609375 6.203125 
Q 37.796875 6.203125 41.984375 11.859375 
Q 46.1875 17.53125 46.1875 27.296875 
Q 46.1875 37.015625 41.984375 42.703125 
Q 37.796875 48.390625 30.609375 48.390625 
z
M 30.609375 56 
Q 42.328125 56 49.015625 48.375 
Q 55.71875 40.765625 55.71875 27.296875 
Q 55.71875 13.875 49.015625 6.21875 
Q 42.328125 -1.421875 30.609375 -1.421875 
Q 18.84375 -1.421875 12.171875 6.21875 
Q 5.515625 13.875 5.515625 27.296875 
Q 5.515625 40.765625 12.171875 48.375 
Q 18.84375 56 30.609375 56 
z
" id="DejaVuSans-111"/>
      <path d="M 48.78125 52.59375 
L 48.78125 44.1875 
Q 44.96875 46.296875 41.140625 47.34375 
Q 37.3125 48.390625 33.40625 48.390625 
Q 24.65625 48.390625 19.8125 42.84375 
Q 14.984375 37.3125 14.984375 27.296875 
Q 14.984375 17.28125 19.8125 11.734375 
Q 24.65625 6.203125 33.40625 6.203125 
Q 37.3125 6.203125 41.140625 7.25 
Q 44.96875 8.296875 48.78125 10.40625 
L 48.78125 2.09375 
Q 45.015625 0.34375 40.984375 -0.53125 
Q 36.96875 -1.421875 32.421875 -1.421875 
Q 20.0625 -1.421875 12.78125 6.34375 
Q 5.515625 14.109375 5.515625 27.296875 
Q 5.515625 40.671875 12.859375 48.328125 
Q 20.21875 56 33.015625 56 
Q 37.15625 56 41.109375 55.140625 
Q 45.0625 54.296875 48.78125 52.59375 
z
" id="DejaVuSans-99"/>
      <path d="M 18.109375 8.203125 
L 18.109375 -20.796875 
L 9.078125 -20.796875 
L 9.078125 54.6875 
L 18.109375 54.6875 
L 18.109375 46.390625 
Q 20.953125 51.265625 25.265625 53.625 
Q 29.59375 56 35.59375 56 
Q 45.5625 56 51.78125 48.09375 
Q 58.015625 40.1875 58.015625 27.296875 
Q 58.015625 14.40625 51.78125 6.484375 
Q 45.5625 -1.421875 35.59375 -1.421875 
Q 29.59375 -1.421875 25.265625 0.953125 
Q 20.953125 3.328125 18.109375 8.203125 
z
M 48.6875 27.296875 
Q 48.6875 37.203125 44.609375 42.84375 
Q 40.53125 48.484375 33.40625 48.484375 
Q 26.265625 48.484375 22.1875 42.84375 
Q 18.109375 37.203125 18.109375 27.296875 
Q 18.109375 17.390625 22.1875 11.75 
Q 26.265625 6.109375 33.40625 6.109375 
Q 40.53125 6.109375 44.609375 11.75 
Q 48.6875 17.390625 48.6875 27.296875 
z
" id="DejaVuSans-112"/>
     </defs>
     <g transform="translate(28.195312 220.621406)rotate(-90)scale(0.1 -0.1)">
      <use xlink:href="#DejaVuSans-70"/>
      <use x="57.441406" xlink:href="#DejaVuSans-101"/>
      <use x="118.964844" xlink:href="#DejaVuSans-109"/>
      <use x="216.376953" xlink:href="#DejaVuSans-97"/>
      <use x="277.65625" xlink:href="#DejaVuSans-108"/>
      <use x="305.439453" xlink:href="#DejaVuSans-101"/>
      <use x="366.962891" xlink:href="#DejaVuSans-32"/>
      <use x="398.75" xlink:href="#DejaVuSans-76"/>
      <use x="454.462891" xlink:href="#DejaVuSans-97"/>
      <use x="515.742188" xlink:href="#DejaVuSans-98"/>
      <use x="579.21875" xlink:href="#DejaVuSans-111"/>
      <use x="640.400391" xlink:href="#DejaVuSans-114"/>
      <use x="681.513672" xlink:href="#DejaVuSans-32"/>
      <use x="713.300781" xlink:href="#DejaVuSans-80"/>
      <use x="773.541016" xlink:href="#DejaVuSans-97"/>
      <use x="834.820312" xlink:href="#DejaVuSans-114"/>
      <use x="875.933594" xlink:href="#DejaVuSans-116"/>
      <use x="915.142578" xlink:href="#DejaVuSans-105"/>
      <use x="942.925781" xlink:href="#DejaVuSans-99"/>
      <use x="997.90625" xlink:href="#DejaVuSans-105"/>
      <use x="1025.689453" xlink:href="#DejaVuSans-112"/>
      <use x="1089.166016" xlink:href="#DejaVuSans-97"/>
      <use x="1150.445312" xlink:href="#DejaVuSans-116"/>
      <use x="1189.654297" xlink:href="#DejaVuSans-105"/>
      <use x="1217.4375" xlink:href="#DejaVuSans-111"/>
      <use x="1278.619141" xlink:href="#DejaVuSans-110"/>
      <use x="1341.998047" xlink:href="#DejaVuSans-32"/>
      <use x="1373.785156" xlink:href="#DejaVuSans-40"/>
      <use x="1412.798828" xlink:href="#DejaVuSans-37"/>
      <use x="1507.818359" xlink:href="#DejaVuSans-41"/>
     </g>
    </g>
   </g>
   <g id="line2d_16">
    <path clip-path="url(#p02dcac7863)" d="M 69.262696 138.752615 
L 373.537304 112.281194 
" style="fill:none;stroke:#ff0000;stroke-linecap:square;stroke-width:1.5;"/>
   </g>
   <g id="patch_3">
    <path d="M 54 252 
L 54 34.56 
" style="fill:none;stroke:#000000;stroke-linecap:square;stroke-linejoin:miter;stroke-width:0.8;"/>
   </g>
   <g id="patch_4">
    <path d="M 388.8 252 
L 388.8 34.56 
" style="fill:none;stroke:#000000;stroke-linecap:square;stroke-linejoin:miter;stroke-width:0.8;"/>
   </g>
   <g id="patch_5">
    <path d="M 54 252 
L 388.8 252 
" style="fill:none;stroke:#000000;stroke-linecap:square;stroke-linejoin:miter;stroke-width:0.8;"/>
   </g>
   <g id="patch_6">
    <path d="M 54 34.56 
L 388.8 34.56 
" style="fill:none;stroke:#000000;stroke-linecap:square;stroke-linejoin:miter;stroke-width:0.8;"/>
   </g>
   <g id="text_18">
    <!-- Female Labor Participation vs Parliament -->
    <defs>
     <path d="M 2.984375 54.6875 
L 12.5 54.6875 
L 29.59375 8.796875 
L 46.6875 54.6875 
L 56.203125 54.6875 
L 35.6875 0 
L 23.484375 0 
z
" id="DejaVuSans-118"/>
    </defs>
    <g transform="translate(97.930313 28.56)scale(0.12 -0.12)">
     <use xlink:href="#DejaVuSans-70"/>
     <use x="57.441406" xlink:href="#DejaVuSans-101"/>
     <use x="118.964844" xlink:href="#DejaVuSans-109"/>
     <use x="216.376953" xlink:href="#DejaVuSans-97"/>
     <use x="277.65625" xlink:href="#DejaVuSans-108"/>
     <use x="305.439453" xlink:href="#DejaVuSans-101"/>
     <use x="366.962891" xlink:href="#DejaVuSans-32"/>
     <use x="398.75" xlink:href="#DejaVuSans-76"/>
     <use x="454.462891" xlink:href="#DejaVuSans-97"/>
     <use x="515.742188" xlink:href="#DejaVuSans-98"/>
     <use x="579.21875" xlink:href="#DejaVuSans-111"/>
     <use x="640.400391" xlink:href="#DejaVuSans-114"/>
     <use x="681.513672" xlink:href="#DejaVuSans-32"/>
     <use x="713.300781" xlink:href="#DejaVuSans-80"/>
     <use x="773.541016" xlink:href="#DejaVuSans-97"/>
     <use x="834.820312" xlink:href="#DejaVuSans-114"/>
     <use x="875.933594" xlink:href="#DejaVuSans-116"/>
     <use x="915.142578" xlink:href="#DejaVuSans-105"/>
     <use x="942.925781" xlink:href="#DejaVuSans-99"/>
     <use x="997.90625" xlink:href="#DejaVuSans-105"/>
     <use x="1025.689453" xlink:href="#DejaVuSans-112"/>
     <use x="1089.166016" xlink:href="#DejaVuSans-97"/>
     <use x="1150.445312" xlink:href="#DejaVuSans-116"/>
     <use x="1189.654297" xlink:href="#DejaVuSans-105"/>
     <use x="1217.4375" xlink:href="#DejaVuSans-111"/>
     <use x="1278.619141" xlink:href="#DejaVuSans-110"/>
     <use x="1341.998047" xlink:href="#DejaVuSans-32"/>
     <use x="1373.785156" xlink:href="#DejaVuSans-118"/>
     <use x="1432.964844" xlink:href="#DejaVuSans-115"/>
     <use x="1485.064453" xlink:href="#DejaVuSans-32"/>
     <use x="1516.851562" xlink:href="#DejaVuSans-80"/>
     <use x="1577.091797" xlink:href="#DejaVuSans-97"/>
     <use x="1638.371094" xlink:href="#DejaVuSans-114"/>
     <use x="1679.484375" xlink:href="#DejaVuSans-108"/>
     <use x="1707.267578" xlink:href="#DejaVuSans-105"/>
     <use x="1735.050781" xlink:href="#DejaVuSans-97"/>
     <use x="1796.330078" xlink:href="#DejaVuSans-109"/>
     <use x="1893.742188" xlink:href="#DejaVuSans-101"/>
     <use x="1955.265625" xlink:href="#DejaVuSans-110"/>
     <use x="2018.644531" xlink:href="#DejaVuSans-116"/>
    </g>
   </g>
  </g>
 </g>
 <defs>
  <clipPath id="p02dcac7863">
   <rect height="217.44" width="334.8" x="54" y="34.56"/>
  </clipPath>
 </defs>
</svg>
